<svg width="175" height="32" viewBox="0 0 175 32" fill="none" xmlns="http://www.w3.org/2000/svg">
<path d="M25.6 32H6.4C2.9 32 0 29.1 0 25.6V6.4C0 2.9 2.9 0 6.4 0H25.6C29.1 0 32 2.9 32 6.4V25.6C32 29.1 29.1 32 25.6 32Z" fill="white"/>
<path fill-rule="evenodd" clip-rule="evenodd" d="M24.8 12.5C24.5 14.6 23.4 16.2 19.7 17.5L24 23.9H19.2L15.5 18.1H13.1L11.7 23.9H7.39999L11.2 8.20001H19.5C23.8 8.20001 25 10.6 24.8 12.5ZM14.6 10.6H17.8C19.6 10.6 20.2 11.6 20 12.8C19.8 14.6 18.6 15 16.5 15H13.3L14.6 10.6Z" fill="#EF3340"/>
<path d="M148.672 11.5824V21.8681H146.178V14.4835L140.928 21.8681H138.565L136.465 14.4835L132.922 21.8681H130.165L135.284 11.1868C135.678 10.5275 135.94 10.1319 136.728 10.1319C137.253 10.1319 137.647 10.3956 137.909 11.1868L140.14 19.2308L145.915 10.9231C146.44 10.2637 146.834 10 147.359 10C148.147 10.2637 148.672 10.6593 148.672 11.5824ZM126.622 12.1099L124.259 22H126.884L129.115 12.1099H126.622ZM158.647 18.3077L157.728 14.7473L155.365 18.3077H158.647ZM159.04 20.022H154.447L153.134 22H150.64L156.809 12.5055C157.203 11.8462 157.728 11.7143 158.122 11.7143C158.778 11.5824 159.434 11.8462 159.697 12.9011L162.059 21.8681H159.565L159.04 20.022ZM169.934 20.1538C167.834 20.1538 166.653 18.8352 166.784 17.2527C167.047 15.1429 168.884 13.8242 171.509 13.8242C172.297 13.8242 173.215 13.956 174.134 14.0879L174.659 12.1099C174.003 11.978 172.69 11.7143 171.903 11.7143C167.44 11.7143 164.553 13.8242 164.29 17.1209C164.028 20.022 165.865 22 170.065 22C170.853 22 171.64 21.8681 172.69 21.7363L173.215 19.6264C172.034 20.022 171.247 20.1538 169.934 20.1538ZM122.159 14.8791C122.29 13.5604 121.634 12.1099 119.009 12.1099H113.89L111.659 21.8681H114.284L115.203 18.1758H116.515L118.878 21.8681H121.765L119.14 17.9121C121.372 17.3846 122.028 16.1978 122.159 14.8791ZM119.665 15.011C119.534 15.9341 118.615 16.5934 117.434 16.5934H115.597L116.253 13.6923H118.222C119.14 13.5604 119.797 14.0879 119.665 15.011Z" fill="white"/>
<path d="M79.1306 18.3478L74.1741 13.3912L73.3915 12.6086C73.261 12.4782 73.1306 12.3477 72.8697 12.3477C72.6089 12.3477 72.2176 12.6086 72.2176 12.8695L70.0002 21.7391H72.0871L73.5219 15.7391L79.3915 21.6087C79.5219 21.7391 79.6524 21.7391 79.9132 21.7391C80.1741 21.7391 80.5654 21.4782 80.5654 21.2174L82.6524 12.3477H80.435L79.1306 18.3478Z" fill="white"/>
<path d="M55.0001 12.3477C54.4783 12.3477 54.087 12.6086 53.6957 12.9999L48.7392 19.6521L46.9131 13.3912C46.7826 12.7391 46.1305 12.3477 45.4783 12.3477C44.9565 12.3477 44.4348 12.6086 44.1739 13.1304L40 21.7391H42.3478L45.4783 15.4782L47.3044 21.7391H49.7827L54.4783 15.4782V21.7391H56.5653V13.7825C56.5653 12.9999 55.9131 12.3477 55.0001 12.3477Z" fill="white"/>
<path d="M66.6088 16.913C66.4784 17.3043 66.348 17.6956 66.2175 18.2174C66.0871 18.6087 65.9567 18.8696 65.6958 19.1304C65.4349 19.3913 65.174 19.5217 64.7827 19.7826C64.3914 19.913 64.0001 20.0435 63.348 20.0435C62.6958 20.0435 62.0436 19.913 61.7827 19.7826C61.5219 19.6522 61.3914 19.5217 61.261 19.2609C61.1305 19 61.1305 18.7391 61.1305 18.3478C61.1305 17.9565 61.261 17.5652 61.261 17.0435L62.3045 12.2173H60.2175L59.174 16.913C58.7827 18.3478 58.9131 19.5217 59.3044 20.3043C59.8262 21.2174 61.1305 21.7391 62.9566 21.7391C64.6523 21.7391 65.9567 21.2174 66.8697 20.3043C67.6523 19.5217 68.1741 18.3478 68.5654 17.0435L69.6088 12.2173H67.5219L66.6088 16.913Z" fill="white"/>
<path d="M107.174 15.3478C107.044 14.826 106.783 14.3043 106.392 13.7825C106 13.2608 105.479 12.9999 104.826 12.7391C104.174 12.4782 103.522 12.3477 102.609 12.3477C101.826 12.3477 100.913 12.4782 100.131 12.7391C99.3482 12.9999 98.696 13.3912 98.1742 13.7825C97.6525 14.1738 97.1308 14.6956 96.7394 15.3478C96.3481 15.8695 96.0873 16.5217 95.9568 17.1739C95.8264 17.826 95.8264 18.4782 95.9568 19C96.0873 19.5217 96.3481 20.1739 96.7394 20.5652C97.1308 21.0869 97.6525 21.3478 98.3047 21.6087C98.9568 21.8695 99.609 22 100.522 22C101.305 22 102.218 21.8695 103 21.6087C103.783 21.3478 104.435 20.9565 104.957 20.5652C105.479 20.1739 106 19.6521 106.392 19C106.783 18.4782 107.044 17.826 107.174 17.1739C107.305 16.3912 107.305 15.8695 107.174 15.3478ZM105.087 17.0434C104.957 17.5652 104.696 18.0869 104.305 18.6087C103.913 19.1304 103.392 19.3913 102.87 19.6521C102.218 19.913 101.566 20.0434 100.783 20.0434C100 20.0434 99.3482 19.913 98.9568 19.6521C98.5655 19.3913 98.1742 19 98.0438 18.6087C97.9134 18.2173 97.9134 17.6956 98.0438 17.1739C98.1742 16.6521 98.4351 16.1304 98.8264 15.6086C99.2177 15.0869 99.7395 14.826 100.261 14.5652C100.913 14.3043 101.566 14.1738 102.348 14.1738C103.131 14.1738 103.783 14.3043 104.174 14.5652C104.566 14.826 104.957 15.2173 105.087 15.6086C105.218 15.9999 105.218 16.5217 105.087 17.0434Z" fill="white"/>
<path d="M92.3046 12.8695C91.522 12.4782 90.609 12.3477 89.435 12.3477H85.1307L83.0437 21.7391H87.4785C88.6524 21.7391 89.6959 21.6087 90.609 21.2174C91.522 20.8261 92.3046 20.3043 92.8264 19.6521C93.4785 19 93.8698 18.0869 94.0003 17.1739C94.2612 16.1304 94.2612 15.3478 93.8699 14.5652C93.609 13.7825 93.0872 13.2608 92.3046 12.8695ZM91.9133 17.0434C91.7829 17.6956 91.522 18.3478 91.1307 18.7391C90.7394 19.1304 90.3481 19.3913 89.8263 19.6521C89.1742 19.7826 88.522 19.913 87.7394 19.913H85.522L86.8263 14.3043H89.1742C89.9568 14.3043 90.609 14.4347 91.1307 14.5652C91.522 14.6956 91.9133 15.0869 92.0438 15.3478C92.1742 15.7391 92.1742 16.2608 91.9133 17.0434Z" fill="white"/>
</svg>
